<?xml version="1.0" encoding="UTF-8"?><svg id="a" xmlns="http://www.w3.org/2000/svg" viewBox="0 0 1245.5 838.5"><polygon points="898.46 324.19 898.46 143.97 1090.96 336.46 1000.85 426.58 898.46 324.19" style="fill:#01a6de;"/><polygon points="701.92 339.58 807.88 233.61 898 143.5 898.46 143.97 898.46 324.19 894.88 320.61 788.91 426.58 701.92 339.58" style="fill:#005e91;"/><polygon points="898.46 838.03 898.46 596.73 1019.11 717.38 898.46 838.03" style="fill:#005e91;"/><polygon points="777 717.5 898.12 596.39 898.46 596.73 898.46 838.03 898 838.5 777 717.5" style="fill:#01a6de;"/><polygon points="550.5 491 671.61 369.88 792.15 490.42 898.12 384.45 898.46 384.79 898.46 536.13 894.88 532.55 864.58 562.85 743.46 683.96 671.03 611.53 637.49 577.99 550.5 491" style="fill:#d75710;"/><polygon points="898.46 536.13 898.46 384.79 1004.09 490.42 1034.39 460.12 1124.5 370 1245.5 491 1155.38 581.11 1125.08 611.41 1049.41 687.08 898.46 536.13" style="fill:#f29400;"/></svg>