<?xml version="1.0" encoding="UTF-8"?>
<svg id="a"
	xmlns="http://www.w3.org/2000/svg" width="480" height="480">
	<polygon points="240.32 124.79 240.32 .32 373.27 133.27 311.03 195.51 240.32 124.79" style="fill:#01a6de;"/>
	<polygon points="104.57 135.42 177.76 62.23 240 0 240.32 .32 240.32 124.79 237.85 122.32 164.66 195.51 104.57 135.42" style="fill:#005e91;"/>
	<polygon points="240.32 479.68 240.32 313.02 323.65 396.35 240.32 479.68" style="fill:#005e91;"/>
	<polygon points="156.43 396.43 240.08 312.79 240.32 313.02 240.32 479.68 240 480 156.43 396.43" style="fill:#01a6de;"/>
	<polygon points="0 240 83.65 156.35 166.89 239.6 240.08 166.41 240.32 166.65 240.32 271.17 237.85 268.69 216.92 289.62 133.27 373.27 83.24 323.24 60.08 300.08 0 240" style="fill:#d75710;"/>
	<polygon points="240.32 271.17 240.32 166.65 313.27 239.6 334.2 218.67 396.43 156.43 480 240 417.76 302.23 396.83 323.16 344.57 375.42 240.32 271.17" style="fill:#f29400;"/>
</svg>